<svg width="229" height="123" viewBox="0 0 229 123" fill="none" xmlns="http://www.w3.org/2000/svg">
<path d="M58.2381 85.0164C58.036 85.0537 57.8649 85.0822 57.7248 85.102C57.5847 85.1218 57.4678 85.133 57.3741 85.1358C56.8421 85.1203 56.4629 84.9831 56.2363 84.7241C56.0094 84.4494 55.8864 83.9919 55.8674 83.3516C55.8298 82.0865 56.4153 81.2719 57.6238 80.9078C58.6941 80.626 59.8445 80.4121 61.0751 80.2662C62.3052 80.1046 63.6777 80.0014 65.1927 79.9564C67.223 79.8962 69.2436 80.0317 71.2543 80.3629C73.2806 80.6936 75.2098 81.1756 77.0419 81.8091C78.8891 82.4265 80.6076 83.1806 82.1972 84.0713C83.7863 84.9465 85.1671 85.9138 86.3397 86.9732C87.5274 88.0166 88.4593 89.1301 89.1353 90.3137C89.8264 91.4812 90.1899 92.6663 90.2255 93.8689C90.2617 95.0871 89.8823 96.2629 89.0874 97.3963C88.3077 98.5137 87.2353 99.5147 85.8703 100.399C84.5053 101.284 82.9166 102.003 81.1041 102.557C79.2916 103.111 77.3858 103.418 75.3867 103.477C73.7936 103.524 72.1259 103.425 70.3835 103.18C68.6411 102.935 66.7137 102.515 64.6014 101.921C63.6252 101.684 63.1235 101.105 63.0961 100.184C63.0901 99.9807 63.1314 99.7919 63.22 99.6173C63.3086 99.4427 63.3975 99.276 63.4865 99.117C63.5912 98.9576 63.6884 98.8062 63.7779 98.6629C63.867 98.5039 63.9092 98.3463 63.9046 98.1901C63.8782 97.2999 63.803 96.3486 63.6792 95.3362C63.571 94.3233 63.4238 93.3116 63.2375 92.3011C63.0668 91.2901 62.8663 90.3268 62.6359 89.4114C62.4207 88.4799 62.2009 87.6579 61.9766 86.9455C61.7523 86.2331 61.5245 85.6693 61.2933 85.2541C61.0773 84.8228 60.8834 84.6097 60.7116 84.6148C60.4461 84.6227 60.1191 84.6636 59.7305 84.7377C59.3575 84.8113 58.86 84.9042 58.2381 85.0164ZM67.2464 84.3741C66.7935 84.3875 66.5717 84.5504 66.5809 84.8628C66.5833 84.9408 66.6106 85.0729 66.663 85.2589C66.7155 85.445 66.7945 85.7396 66.9003 86.1429C67.0603 86.7947 67.2139 87.4936 67.3611 88.2396C67.5083 88.9855 67.6582 89.8252 67.811 90.7586C67.9632 91.6763 68.1112 92.7115 68.2548 93.864C68.4135 95.0004 68.5767 96.2852 68.7443 97.7183C68.7668 97.9521 68.9844 98.1724 69.397 98.379C69.809 98.57 70.3534 98.7414 71.0301 98.8933C71.7063 99.0295 72.4755 99.1396 73.3378 99.2234C74.2152 99.2912 75.1146 99.3114 76.0361 99.2841C77.2543 99.248 78.4137 99.0729 79.5142 98.7589C80.6299 98.4288 81.6023 98.0091 82.4313 97.5C83.2759 96.9903 83.9387 96.4079 84.4194 95.7528C84.9159 95.0971 85.1539 94.4257 85.1335 93.7385C85.0997 92.5984 84.6139 91.5029 83.676 90.4522C82.7538 89.4009 81.4911 88.4614 79.8877 87.6335C78.2839 86.7901 76.4028 86.0877 74.2446 85.5265C72.0859 84.9496 69.7532 84.5655 67.2464 84.3741ZM95.1455 77.9191C94.6925 77.9326 94.2612 77.8828 93.8514 77.7699C93.4568 77.6409 93.1076 77.4637 92.8039 77.2382C92.5154 76.9967 92.2804 76.7145 92.0988 76.3916C91.9173 76.0687 91.8208 75.712 91.8092 75.3216C91.7897 74.6656 92.0317 74.127 92.535 73.7056C93.054 73.2838 93.7508 73.0599 94.6254 73.034C95.0315 73.0219 95.4242 73.0884 95.8037 73.2335C96.1827 73.3629 96.5165 73.5484 96.805 73.79C97.1092 74.0311 97.3523 74.3209 97.5342 74.6594C97.7158 74.9823 97.8119 75.3233 97.8225 75.6825C97.8424 76.3541 97.6083 76.8925 97.1201 77.2978C96.647 77.687 95.9888 77.8941 95.1455 77.9191ZM92.1479 85.1596C92.1316 84.613 92.3527 84.1609 92.8111 83.8034C93.2846 83.4298 93.9118 83.2315 94.6927 83.2083C96.0983 83.1666 96.8624 83.6285 96.9848 84.5941C97.0672 85.2638 97.1521 86.0194 97.2396 86.861C97.3427 87.702 97.4396 88.598 97.5303 89.5488C97.6362 90.4836 97.7277 91.4579 97.8046 92.4717C97.8967 93.4694 97.9808 94.4595 98.0569 95.4421C98.1324 96.409 98.1993 97.3449 98.2574 98.2499C98.3155 99.1548 98.3556 99.9821 98.3779 100.732C98.401 101.513 98.1373 102.107 97.5866 102.514C97.0516 102.92 96.253 103.14 95.191 103.171C94.7068 103.185 94.3207 103.08 94.0326 102.854C93.7606 102.643 93.6182 102.319 93.6052 101.882C93.5413 99.7263 93.4268 97.7131 93.2619 95.8422C93.1122 93.9552 92.953 92.2795 92.7846 90.8151C92.6317 89.3502 92.4862 88.1353 92.3482 87.1702C92.2253 86.189 92.1585 85.5188 92.1479 85.1596ZM107.972 81.1028C109.018 81.0717 110.1 81.1803 111.218 81.4286C112.334 81.6612 113.36 81.9825 114.294 82.3925C115.228 82.7868 116 83.2407 116.609 83.7541C117.218 84.2675 117.53 84.7741 117.545 85.2739C117.553 85.5238 117.452 85.8082 117.242 86.127C117.032 86.4302 116.775 86.727 116.471 87.0174C116.167 87.2922 115.83 87.5289 115.461 87.7274C115.107 87.9099 114.789 88.0053 114.508 88.0136C114.133 88.0247 113.707 87.881 113.229 87.5826C112.767 87.2836 112.249 86.9551 111.676 86.5969C111.117 86.2227 110.506 85.8891 109.84 85.5962C109.175 85.3033 108.46 85.1682 107.695 85.1909C107.195 85.2057 106.785 85.3429 106.464 85.6026C106.159 85.8461 106.013 86.1865 106.025 86.6238C106.037 87.0143 106.236 87.407 106.623 87.8019C107.01 88.1813 107.514 88.5728 108.135 88.9764C108.772 89.3795 109.488 89.8038 110.283 90.2492C111.078 90.6946 111.889 91.1707 112.717 91.6777C113.561 92.1841 114.382 92.7381 115.182 93.3397C115.981 93.9413 116.696 94.6 117.327 95.316C117.974 96.0316 118.497 96.8211 118.898 97.6846C119.298 98.5324 119.514 99.464 119.544 100.479C119.57 101.354 119.437 102.155 119.146 102.883C118.855 103.61 118.428 104.24 117.866 104.773C117.303 105.306 116.628 105.724 115.839 106.029C115.051 106.334 114.181 106.5 113.228 106.528C112.026 106.564 110.911 106.41 109.885 106.065C108.859 105.736 107.97 105.262 107.216 104.643C106.463 104.025 105.863 103.277 105.415 102.399C104.982 101.521 104.75 100.551 104.719 99.4885C104.678 98.1141 104.89 97.1074 105.356 96.4683C105.837 95.8288 106.609 95.4932 107.671 95.4617C108.327 95.4423 108.854 95.5517 109.252 95.79C109.65 96.0283 109.854 96.3271 109.865 96.6863C109.87 96.8737 109.845 97.0699 109.788 97.2748C109.731 97.464 109.667 97.6692 109.595 97.8901C109.539 98.095 109.483 98.3155 109.427 98.5517C109.388 98.7873 109.371 99.0223 109.378 99.2566C109.39 99.6626 109.495 100.05 109.694 100.42C109.892 100.789 110.152 101.109 110.473 101.381C110.81 101.668 111.191 101.891 111.618 102.051C112.045 102.21 112.493 102.283 112.961 102.269C114.211 102.232 114.82 101.698 114.789 100.667C114.765 99.8549 114.422 99.0991 113.761 98.3997C113.099 97.6846 112.273 96.9978 111.285 96.3394C110.295 95.6653 109.228 94.9935 108.083 94.324C106.953 93.6541 105.893 92.9509 104.902 92.2143C103.911 91.4777 103.082 90.6894 102.416 89.8494C101.75 88.9938 101.402 88.0584 101.372 87.0432C101.347 86.1998 101.496 85.4217 101.818 84.7086C102.157 83.9952 102.623 83.3795 103.217 82.8617C103.811 82.3282 104.51 81.9089 105.314 81.6037C106.133 81.298 107.019 81.131 107.972 81.1028ZM128.102 81.514C128.915 81.4899 129.707 81.5836 130.479 81.7952C131.251 82.0068 131.932 82.307 132.522 82.6959C133.127 83.0688 133.617 83.5076 133.992 84.0123C134.366 84.5015 134.561 85.0115 134.576 85.5425C134.586 85.8861 134.526 86.224 134.395 86.5562C134.264 86.8727 134.085 87.1594 133.858 87.4162C133.631 87.6574 133.371 87.8605 133.079 88.0255C132.786 88.1749 132.476 88.2544 132.148 88.2642C131.789 88.2748 131.457 88.1518 131.152 87.8951C130.847 87.6228 130.518 87.3277 130.165 87.0099C129.827 86.676 129.443 86.3826 129.013 86.1296C128.599 85.8605 128.103 85.7346 127.525 85.7517C126.962 85.7684 126.459 85.9162 126.014 86.1951C125.569 86.4741 125.197 86.8602 124.899 87.3537C124.616 87.831 124.399 88.4002 124.246 89.0613C124.109 89.7063 124.052 90.4114 124.075 91.1767C124.14 93.3632 124.603 95.0221 125.465 96.1533C126.327 97.2688 127.53 97.8037 129.077 97.7578C129.811 97.7361 130.432 97.6004 130.94 97.3508C131.464 97.1008 131.918 96.8295 132.3 96.5367C132.697 96.2436 133.057 95.975 133.378 95.731C133.699 95.487 134.031 95.3599 134.375 95.3497C134.562 95.3441 134.751 95.4011 134.943 95.5204C135.133 95.6242 135.302 95.7677 135.448 95.951C135.609 96.1181 135.74 96.3097 135.84 96.5255C135.956 96.7409 136.017 96.958 136.023 97.1766C136.039 97.692 135.797 98.2307 135.298 98.7926C134.814 99.3541 134.181 99.8731 133.398 100.35C132.614 100.811 131.734 101.196 130.759 101.506C129.799 101.816 128.858 101.985 127.937 102.012C126.703 102.049 125.563 101.84 124.518 101.387C123.473 100.949 122.564 100.319 121.789 99.4981C121.014 98.6613 120.398 97.6557 119.941 96.4812C119.5 95.3063 119.258 94.0004 119.215 92.5635C119.169 91.0017 119.353 89.5581 119.767 88.2328C120.196 86.907 120.803 85.7557 121.587 84.7789C122.386 83.786 123.34 83.0074 124.449 82.443C125.557 81.863 126.775 81.5533 128.102 81.514ZM136.785 92.8162C136.777 92.5507 136.8 92.253 136.852 91.9232C136.905 91.5934 136.926 91.2332 136.914 90.8428C136.906 90.5772 136.783 90.3777 136.545 90.2441C136.322 90.11 136.067 89.9612 135.781 89.7978C135.495 89.6343 135.231 89.4233 134.989 89.1647C134.762 88.9057 134.641 88.5263 134.627 88.0265C134.616 87.6673 134.699 87.3053 134.876 86.9405C135.068 86.5753 135.347 86.2387 135.713 85.9309C136.614 85.2164 137.549 84.5712 138.517 83.9954C139.5 83.4191 140.478 82.9289 141.451 82.5249C142.439 82.1204 143.415 81.8023 144.377 81.5706C145.339 81.3388 146.265 81.2097 147.156 81.1833C148.655 81.1388 150.069 81.3783 151.398 81.9016C152.741 82.4089 153.912 83.1323 154.909 84.0719C155.921 84.9954 156.727 86.097 157.328 87.3767C157.944 88.6402 158.274 90.006 158.317 91.4741C158.36 92.911 158.096 94.2866 157.525 95.601C156.97 96.8993 156.199 98.0476 155.212 99.0461C154.226 100.045 153.054 100.845 151.696 101.448C150.354 102.066 148.926 102.398 147.411 102.443C145.927 102.487 144.546 102.278 143.266 101.816C141.986 101.353 140.872 100.698 139.925 99.8512C138.977 98.9883 138.227 97.9632 137.676 96.7759C137.125 95.573 136.828 94.2531 136.785 92.8162ZM147.801 98.2107C148.457 98.1913 149.133 98.0384 149.828 97.752C150.523 97.4657 151.152 97.064 151.715 96.5471C152.293 96.0141 152.759 95.375 153.112 94.6298C153.48 93.8842 153.651 93.0507 153.624 92.1292C153.596 91.1921 153.398 90.3226 153.03 89.5206C152.663 88.7187 152.166 88.03 151.539 87.4546C150.927 86.8631 150.203 86.4078 149.365 86.0887C148.542 85.7692 147.655 85.6236 146.702 85.6519C144.968 85.7033 143.654 86.1956 142.76 87.1288C141.865 88.0463 141.445 89.4344 141.5 91.2929C141.53 92.3081 141.706 93.2486 142.029 94.1144C142.367 94.9642 142.819 95.7011 143.384 96.3252C143.949 96.9337 144.604 97.4067 145.349 97.7442C146.109 98.0811 146.927 98.2367 147.801 98.2107ZM166.312 91.4246C166.374 93.5174 166.742 95.1244 167.416 96.2455C168.09 97.3667 169.036 97.9092 170.254 97.873C171.02 97.8503 171.716 97.603 172.343 97.1311C172.985 96.6587 173.529 96.0095 173.973 95.1835C174.418 94.3575 174.748 93.3863 174.965 92.27C175.198 91.1376 175.294 89.9155 175.255 88.6035C175.232 87.807 175.18 87.1207 175.1 86.5447C175.02 85.9531 174.935 85.432 174.843 84.9813C174.767 84.5147 174.692 84.1026 174.619 83.7453C174.546 83.3879 174.504 83.0452 174.494 82.7172C174.48 82.2175 174.68 81.852 175.095 81.6208C175.51 81.3741 176.178 81.237 177.099 81.2097C178.271 81.1749 179.184 81.4136 179.841 81.9256C180.512 82.4372 180.863 83.2005 180.893 84.2157C180.975 86.9801 180.776 89.4715 180.294 91.6899C179.829 93.9078 179.111 95.8049 178.142 97.3812C177.188 98.9414 176.004 100.157 174.592 101.027C173.18 101.897 171.583 102.359 169.803 102.412C168.538 102.449 167.359 102.219 166.265 101.72C165.188 101.236 164.245 100.537 163.436 99.6228C162.643 98.6928 162.008 97.5862 161.532 96.3028C161.056 95.0039 160.795 93.5735 160.748 92.0117C160.731 91.4182 160.728 90.7852 160.739 90.1127C160.75 89.4402 160.776 88.7203 160.816 87.9532C160.855 87.1704 160.908 86.3247 160.975 85.4161C161.057 84.507 161.145 83.5196 161.239 82.4539C161.272 81.9996 161.472 81.6341 161.839 81.3575C162.221 81.0647 162.709 80.9096 163.303 80.892C163.834 80.8762 164.335 80.9161 164.807 81.0115C165.279 81.1069 165.681 81.2435 166.015 81.4212C166.364 81.5984 166.636 81.8092 166.831 82.0535C167.041 82.2974 167.151 82.5599 167.159 82.841C167.167 83.1221 167.118 83.5691 167.011 84.1819C166.919 84.7787 166.815 85.4696 166.697 86.2546C166.595 87.0236 166.495 87.8629 166.397 88.7725C166.314 89.6659 166.286 90.55 166.312 91.4246ZM184.012 80.2778C184.005 80.0435 184.1 79.814 184.297 79.5893C184.493 79.349 184.752 79.1381 185.075 78.9566C185.398 78.7595 185.76 78.6002 186.163 78.4788C186.581 78.3414 187.001 78.2664 187.423 78.2539C187.657 78.2469 187.854 78.3036 188.014 78.4239C188.189 78.5438 188.345 78.7815 188.48 79.137C188.616 79.4769 188.739 79.9656 188.852 80.6032C188.98 81.2246 189.106 82.0416 189.23 83.054C189.301 83.3645 189.363 83.605 189.415 83.7754C189.482 83.9297 189.563 84.0055 189.656 84.0027C189.797 83.9985 189.93 83.7523 190.057 83.2639C191.099 79.9347 192.698 78.2381 194.853 78.1742C195.853 78.1445 196.768 78.43 197.598 79.0307C198.445 79.6308 199.24 80.6311 199.985 82.0315C200.745 83.4159 201.48 85.2543 202.189 87.5468C202.897 89.8236 203.622 92.6393 204.362 95.9939C204.398 96.1647 204.427 96.3202 204.446 96.4603C204.466 96.6004 204.478 96.7329 204.482 96.8579C204.492 97.2171 204.416 97.532 204.252 97.8026C204.103 98.0571 203.898 98.2742 203.638 98.4539C203.377 98.618 203.084 98.7439 202.758 98.8317C202.433 98.9352 202.106 98.9917 201.778 99.0015C201.122 99.0209 200.644 98.9648 200.343 98.833C200.058 98.7008 199.87 98.4406 199.781 98.0525C199.257 95.6919 198.75 93.5967 198.258 91.7667C197.781 89.9363 197.314 88.4026 196.855 87.1657C196.411 85.9126 195.977 84.9642 195.551 84.3203C195.126 83.6763 194.71 83.3604 194.304 83.3724C193.898 83.3845 193.523 83.6535 193.179 84.1796C192.85 84.6896 192.538 85.4882 192.242 86.5756C191.946 87.663 191.666 89.0391 191.403 90.7039C191.155 92.3682 190.925 94.3524 190.712 96.6567C190.652 97.2837 190.355 97.7927 189.819 98.1838C189.284 98.5748 188.594 98.7829 187.751 98.8079C187.189 98.8246 186.756 98.7202 186.452 98.4947C186.148 98.2692 185.975 97.9539 185.931 97.5488C185.694 94.3044 185.459 91.6383 185.225 89.5506C185.006 87.4467 184.808 85.7644 184.63 84.5035C184.451 83.227 184.306 82.2777 184.194 81.6558C184.082 81.0338 184.021 80.5745 184.012 80.2778ZM208.369 71.3955C208.344 70.5677 208.562 69.9829 209.02 69.641C209.479 69.2836 210.247 69.0888 211.324 69.0569C211.715 69.0453 212.044 69.0746 212.312 69.1448C212.595 69.1989 212.833 69.3169 213.026 69.4988C213.234 69.6802 213.398 69.9255 213.517 70.2346C213.65 70.5276 213.763 70.9073 213.855 71.3735C214.086 72.8204 214.333 74.3137 214.598 75.8534C214.878 77.3927 215.166 78.9395 215.462 80.4939C215.577 81.1939 215.954 81.5345 216.595 81.5155C216.766 81.5104 217.047 81.4864 217.437 81.4436C217.841 81.3847 218.316 81.3237 218.861 81.2607C219.406 81.182 219.99 81.1021 220.613 81.0211C221.251 80.9397 221.882 80.8662 222.506 80.8009C223.144 80.7194 223.744 80.6547 224.305 80.6068C224.882 80.5428 225.389 80.5043 225.826 80.4913C226.17 80.4812 226.445 80.5433 226.652 80.6779C226.859 80.7968 227.02 80.964 227.136 81.1794C227.267 81.3787 227.352 81.6107 227.391 81.8752C227.445 82.1237 227.477 82.3807 227.484 82.6462C227.491 82.8805 227.452 83.124 227.365 83.3767C227.295 83.6289 227.184 83.8588 227.034 84.0665C226.899 84.2581 226.724 84.4196 226.509 84.551C226.294 84.6824 226.046 84.7523 225.765 84.7607C224.406 84.801 223.033 84.8886 221.646 85.0235C220.274 85.1424 218.903 85.2925 217.533 85.4738C216.833 85.5883 216.492 85.9502 216.51 86.5593C216.511 86.6061 216.521 86.6684 216.539 86.746C216.556 86.808 216.566 86.8624 216.567 86.9093C216.795 88.2625 217.004 89.5303 217.196 90.7126C217.403 91.8945 217.575 92.9524 217.712 93.8862C217.864 94.804 217.981 95.5743 218.062 96.1972C218.158 96.804 218.209 97.2089 218.215 97.4119C218.232 97.9742 218.191 98.4443 218.093 98.8224C217.995 99.2161 217.825 99.5338 217.582 99.7755C217.339 100.033 217.008 100.215 216.59 100.321C216.187 100.442 215.673 100.512 215.048 100.531C214.455 100.548 214.013 100.421 213.724 100.148C213.434 99.875 213.265 99.4502 213.217 98.8732C213.069 97.0331 212.865 95.1867 212.607 93.3342C212.349 91.466 212.059 89.6066 211.738 87.7559C211.578 87.0885 211.216 86.7632 210.654 86.7798C210.607 86.7812 210.553 86.7907 210.491 86.8081C210.429 86.8256 210.374 86.835 210.328 86.8364C209.366 87.0838 208.459 87.3295 207.606 87.5737C206.754 87.8178 205.956 88.0759 205.214 88.3481C204.796 88.5011 204.425 88.6138 204.098 88.686C203.772 88.7425 203.476 88.7748 203.21 88.7826C202.851 88.7933 202.581 88.645 202.4 88.3377C202.218 88.0148 202.12 87.6113 202.106 87.1272C202.101 86.9554 202.111 86.7597 202.136 86.5401C202.16 86.3049 202.216 86.0766 202.303 85.8551C202.374 85.6186 202.493 85.404 202.659 85.2115C202.809 85.0038 203.023 84.8333 203.3 84.7001C203.948 84.4151 204.815 84.1158 205.9 83.8023C206.984 83.4731 208.21 83.1632 209.577 82.8726C209.887 82.7852 210.125 82.6531 210.292 82.4762C210.474 82.2832 210.56 82.0071 210.549 81.6479C210.547 81.5698 210.544 81.4917 210.542 81.4136C210.539 81.3199 210.521 81.2267 210.487 81.1339C210.194 79.7044 209.914 78.4075 209.644 77.2431C209.391 76.0626 209.165 75.0532 208.968 74.2149C208.787 73.3762 208.643 72.7161 208.535 72.2347C208.427 71.7533 208.371 71.4736 208.369 71.3955Z" fill="#0A1740"/>
<path d="M185.826 61.6992C187.728 61.6992 189.172 61.6992 190.155 61.6992C191.205 61.6992 191.927 61.6992 192.32 61.6992C195.009 61.6992 197.371 61.4696 199.404 61.0104C201.503 60.5513 203.274 59.7313 204.718 58.5506C206.226 57.3043 207.341 55.5989 208.063 53.4342C208.85 51.2696 209.244 48.4818 209.244 45.0709C209.244 41.5943 208.555 38.7082 207.177 36.4123C205.865 34.0509 203.93 32.2799 201.372 31.0991C198.88 29.9184 195.862 29.3281 192.32 29.3281H185.826V61.6992ZM223.904 45.1693C223.904 52.4503 222.428 58.1243 219.476 62.1911C216.59 66.1924 212.458 68.9802 207.079 70.5545C201.7 72.1288 195.37 72.9159 188.089 72.9159C186.974 72.9159 185.17 72.9159 182.678 72.9159C180.251 72.9159 176.774 72.9159 172.248 72.9159V17.521C177.102 17.521 180.677 17.521 182.973 17.521C185.334 17.521 187.04 17.521 188.089 17.521C195.37 17.521 201.7 18.5705 207.079 20.6696C212.458 22.703 216.59 25.7532 219.476 29.82C222.428 33.8869 223.904 39.0033 223.904 45.1693Z" fill="#A6CB17"/>
<path d="M113.804 72.9159V17.521H137.714C139.026 17.521 140.633 17.5866 142.535 17.7178C144.437 17.7834 146.405 18.0458 148.438 18.5049C150.472 18.8985 152.374 19.62 154.145 20.6696C155.916 21.7191 157.359 23.1622 158.474 24.9988C159.59 26.8355 160.147 29.1969 160.147 32.0831C160.147 34.1821 159.721 36.1172 158.868 37.8882C158.015 39.6593 156.474 41.1352 154.244 42.3159C152.079 43.431 148.898 44.1197 144.7 44.3821V44.7757C149.488 44.9069 153.194 45.5628 155.818 46.7435C158.442 47.9242 160.278 49.4657 161.328 51.368C162.377 53.2046 162.902 55.3365 162.902 57.7635C162.902 60.7809 162.312 63.2735 161.131 65.2413C159.95 67.1436 158.376 68.6195 156.408 69.669C154.506 70.7185 152.407 71.4728 150.111 71.932C147.881 72.3912 145.651 72.6863 143.42 72.8175C141.256 72.8831 139.354 72.9159 137.714 72.9159H113.804ZM127.382 61.9944H136.435C138.534 61.9944 140.501 61.9288 142.338 61.7976C144.24 61.6008 145.782 61.076 146.963 60.2233C148.143 59.305 148.734 57.7963 148.734 55.6973C148.734 53.5982 148.143 52.1223 146.963 51.2696C145.847 50.4169 144.339 49.9249 142.437 49.7937C140.6 49.5969 138.599 49.4985 136.435 49.4985H127.382V61.9944ZM127.284 39.2657H135.943C137.582 39.2657 139.222 39.2001 140.862 39.0689C142.502 38.8721 143.88 38.413 144.995 37.6914C146.11 36.9043 146.667 35.5924 146.667 33.7557C146.667 31.9847 146.143 30.7384 145.093 30.0168C144.109 29.2953 142.797 28.8689 141.157 28.7377C139.518 28.6065 137.779 28.5409 135.943 28.5409H127.284V39.2657Z" fill="#A6CB17"/>
<path d="M79.1312 14.399C84.7064 14.3991 89.3962 15.4156 93.2006 17.4489C97.0051 19.4167 99.957 22.0412 102.056 25.3209C104.221 28.535 105.598 32.0117 106.189 35.7506H92.0199C91.6919 33.258 90.7407 31.4206 89.1664 30.2399C87.6578 29.0594 85.9522 28.3051 84.0502 27.9772C82.2138 27.5837 80.5741 27.3874 79.1312 27.3873C74.0149 27.3873 70.2098 28.7312 67.7172 31.4205C65.2246 34.0443 63.9789 37.7182 63.9789 42.441C63.9789 47.623 65.1915 51.6574 67.6185 54.5436C70.0455 57.4297 73.8506 58.8727 79.0326 58.8727C80.5412 58.8727 82.2466 58.6754 84.1488 58.2819C86.051 57.8227 87.7564 56.9374 89.265 55.6256C90.8392 54.3138 91.7905 52.3459 92.1185 49.7223H106.385C105.729 53.5922 104.319 57.2324 102.155 60.6432C99.9901 63.9884 96.9729 66.6781 93.1029 68.7115C89.2984 70.745 84.5421 71.7614 78.8353 71.7614C73.5879 71.7613 68.7993 70.7119 64.4701 68.6129C61.8951 67.3644 59.6334 65.7447 57.6849 63.7535C56.3579 62.3974 60.1111 56.2449 59.0756 54.5436C56.5174 50.3456 60.4522 43.9849 60.5179 37.7535C60.5835 31.6533 60.5179 30.2403 60.5179 25.3209C59.5179 23.2535 57.2122 23.4981 59.0756 21.7535C60.713 20.2205 62.5438 18.9162 64.5687 17.8424C68.898 15.5466 73.7525 14.399 79.1312 14.399Z" fill="#A6CB17"/>
<path d="M38.9785 0C40.7347 0.217831 42.3326 1.46001 43.7812 2.41309C48.4686 5.49678 52.9309 8.87929 56.3994 13.3418C56.7529 13.8039 57.0929 14.2768 57.4199 14.7578C57.747 15.2389 58.0608 15.7288 58.3604 16.2275C58.6597 16.726 58.9448 17.2326 59.2158 17.7471C59.487 18.2618 59.7444 18.7852 59.9863 19.3145C60.2281 19.8434 60.4543 20.3792 60.666 20.9209C60.8765 21.4593 61.0728 22.0033 61.2529 22.5527L62.0391 42.0977C60.2946 43.708 63.8367 58.1925 61.1631 60.252L60.9209 65.1533L60.9141 65.1572C55.2627 68.1458 48.3383 71.8024 33.583 73.9619C33.5918 73.9533 33.6016 73.9452 33.6104 73.9365C29.208 74.3283 24.7969 74.1828 20.4697 73.208C16.4403 72.3002 12.6684 70.9294 8.46484 70.9756C7.59603 70.9853 6.72617 71.1206 5.87891 71.3096C4.36418 71.6476 1.84005 72.6762 0.494141 71.5518C0.20474 71.3096 0.00493759 70.8799 0 70.5029C-0.0149851 69.2907 5.53722 63.6099 6.80664 62.4248C11.1793 58.3428 15.4584 55.2553 21.0479 53.0654C19.4916 52.2227 17.9425 51.3903 16.4844 50.3828C11.4866 46.9299 7.81025 42.0909 5.01367 36.7598C4.2546 35.3125 3.28851 33.7566 2.82031 32.1973C2.63415 31.5764 2.66285 31.0683 2.97949 30.4922C3.18184 30.1238 3.50318 29.8022 3.9248 29.7109C4.13041 29.6665 4.3441 29.6688 4.55176 29.6963C5.99829 29.8876 8.01976 31.297 9.42676 31.9316C11.1768 32.7206 12.9523 33.2788 14.8389 33.6377C16.7448 34.0003 18.6929 34.1128 20.624 34.2725C27.0179 34.8011 33.1227 35.1316 38.918 38.2246C36.8364 30.7022 36.8207 25.9865 38.207 18.3389C38.6722 15.7726 39.4015 13.3778 39.3594 10.7422C39.3382 9.4225 39.1659 8.17168 38.8398 6.89355C38.512 5.60899 37.0844 2.4332 37.29 1.3457C37.319 1.19286 37.3719 1.04827 37.4473 0.912109C37.6868 0.479973 38.177 0.19017 38.6445 0.0712891C38.7549 0.0440839 38.8666 0.0202744 38.9785 0ZM34.9121 60.3965C33.8525 60.4015 32.7926 60.4298 31.7344 60.4814C30.6761 60.5332 29.6185 60.6078 28.5635 60.7061C27.5085 60.8043 26.4558 60.9268 25.4062 61.0713C24.3567 61.2159 23.3098 61.3835 22.2676 61.5742C21.2252 61.7649 20.1863 61.9785 19.1533 62.2148C14.5869 63.2423 11.1042 64.9699 7.18555 67.5107C9.21385 67.3001 11.2616 67.4561 13.2705 67.2031C13.5917 67.1625 14.0108 67.0486 14.3193 67.1299C14.2961 67.2274 14.273 67.3263 14.2422 67.4219C14.2332 67.4502 14.2223 67.4796 14.2129 67.5078C14.9722 67.8584 16.1532 68.2721 16.9785 68.3691C17.4498 68.4243 18.1583 68.1156 18.5684 68.3574C18.4697 68.5031 18.4549 68.4931 18.4463 68.6816C19.3135 69.1012 20.9214 69.1633 21.8818 69.0596C22.5893 68.9829 23.3259 68.7769 24.0332 68.9199L24.0889 69.0459L23.8838 69.4736C24.182 69.7854 26.0116 69.776 26.541 69.8467C27.0471 69.5442 27.686 68.9555 28.2744 68.9531C28.4243 69.212 28.3862 69.3806 28.3848 69.6758C28.4332 69.6885 28.4815 69.7092 28.5312 69.7139C29.4203 69.7979 31.792 69.2864 32.4961 68.7314C32.6707 68.5937 32.8187 68.4917 33.0166 68.3896L33.1445 68.4971C33.1697 68.8815 33.0368 69.2012 32.9141 69.5596C34.0416 69.3263 35.1501 69.1756 36.0625 68.4189C36.3266 68.112 36.575 67.6669 36.873 67.4072C37.0388 67.2631 37.0948 67.2698 37.2979 67.2803C37.4731 67.5198 37.4227 67.8724 37.4258 68.1582C37.5428 68.1834 37.5481 68.1917 37.6855 68.1904C38.937 68.1786 40.4993 66.1492 41.2559 65.2715L41.2383 66.3086C42.9805 65.4371 44.2635 64.0554 45.7402 62.8311C45.885 62.9902 45.8045 62.9261 45.9795 63.0264C46.6479 62.6523 47.2501 62.0158 47.8271 61.5098C46.7377 61.2278 45.5408 61.1347 44.4238 60.9805C43.3731 60.8458 42.3193 60.7347 41.2637 60.6465C40.2078 60.5582 39.1496 60.4928 38.0908 60.4512C37.0321 60.4095 35.9717 60.3915 34.9121 60.3965ZM35.4805 54.6123C34.4643 54.3267 33.2459 54.5069 32.2021 54.5664C32.4614 54.8909 32.7031 55.234 32.9492 55.5684C31.1187 54.9549 30.1103 54.858 28.1816 55.0693C27.9738 55.081 27.8788 55.0948 27.709 55.2178C27.7368 55.5136 28.0053 55.7285 28.1973 55.9385C26.9081 55.7348 25.1811 55.638 23.9355 56.0938C23.708 56.1772 23.6333 56.2488 23.5439 56.4668L23.8086 57C23.4746 57.1162 23.079 57.0832 22.7266 57.0918C21.6568 57.118 20.6874 57.3299 19.7471 57.8711C19.5573 57.9802 19.5061 57.9896 19.4473 58.207C19.5919 58.2809 19.7349 58.3581 19.876 58.4385C19.2587 58.7838 18.4738 58.6927 17.8643 59.0381C15.3597 60.4578 10.2974 63.6561 8.51074 65.8145C14.4521 61.9854 22.4441 60.1658 29.3779 59.2363C34.1105 58.7028 38.8344 58.1802 43.6074 58.4238C45.3054 58.5105 47.0173 58.7642 48.707 58.958C47.28 57.9269 45.5416 56.9039 43.9229 56.2051C43.4465 55.9994 42.9496 55.9236 42.4561 55.7803C41.2165 55.4202 40.0866 54.9526 38.7881 54.8018C38.5347 54.7721 38.1432 54.683 37.9443 54.8389L38.1895 55.4668L38.1279 55.5488C37.2077 55.3147 36.3814 54.8659 35.4805 54.6123ZM43.0176 7.49121C42.7968 7.92044 43.3883 11.6926 43.3682 12.5625C43.2816 12.6489 43.1637 12.7535 43.0938 12.8574C42.6651 13.4965 43.0209 16.0883 43.126 16.9355L42.3555 16.2012C42.1142 17.4702 41.8423 18.7514 41.7988 20.0459C41.7703 20.8951 42.0331 21.861 41.8672 22.6826C41.7275 22.6453 41.6264 22.6007 41.4951 22.5332C41.4458 22.5077 41.3967 22.4812 41.3477 22.4551L41.2393 22.5596C41.0858 23.6588 40.9991 24.8495 41.1191 25.9551C41.4023 26.3664 41.9632 26.9515 42.0713 27.4287L41.9688 27.543C41.6248 27.5538 41.3283 27.408 41.0137 27.2852C41.0571 28.3189 41.1464 29.3497 41.2793 30.376C41.7629 30.9088 42.5067 31.4677 42.8262 32.1045L42.7539 32.248C42.3204 32.3112 41.8789 32.1121 41.4688 31.9814C41.6261 33.0709 41.7954 34.225 42.168 35.2646L42.2256 35.4238C42.4215 35.9701 42.9978 36.2532 43.3271 36.7256L43.2793 36.8369L42.7539 36.96C42.6928 37.3214 42.842 37.648 42.9648 37.9844C43.7804 40.2166 44.8848 40.027 45.4658 41.0781L45.3877 41.1738C45.0078 41.2145 44.6728 41.1799 44.2949 41.1309C45.391 43.1219 46.435 44.0862 48.1934 45.4902C48.065 45.465 47.9354 45.4415 47.8066 45.4189C47.5431 45.3748 47.3934 45.3348 47.166 45.4951C47.2475 45.981 47.9284 46.6611 48.2402 47.0752C48.7915 47.7714 49.4709 48.303 50.0479 48.9678C49.9875 49.039 49.9247 49.1099 49.8594 49.1768L49.7832 49.2529C50.7199 50.5673 51.6524 51.8673 52.5391 53.2178C52.2411 49.0256 52.4797 44.7569 52.4141 40.5527C52.3623 37.2271 52.2576 33.9124 51.7852 30.6152C50.6276 22.5376 47.223 14.4297 43.0176 7.49121ZM43.6895 6.90625C43.7156 7.46293 46.0466 11.1357 46.4854 11.9824C48.5949 16.0557 50.7185 20.2963 52.166 24.6562C54.3628 31.2733 54.7103 37.9108 54.835 44.8213C54.8842 47.5447 54.9741 50.2463 54.9219 52.9717C55.3526 51.9475 57.0549 48.6875 57.0264 47.7676C56.7797 47.7928 56.5454 47.8358 56.3027 47.8848L56.2305 47.7842C56.4431 47.127 57.0947 46.6273 57.4238 46C57.4385 45.9719 57.4516 45.9424 57.4658 45.9141C58.1611 44.5602 58.816 42.5159 58.8779 40.9932C58.8871 40.7675 58.8751 40.6884 58.7207 40.5117L58.4424 40.499L58.3555 40.374C58.4594 39.6325 59.7051 37.1698 59.3994 35.416L59.2871 35.3516C59.0852 35.4379 58.895 35.5174 58.6826 35.5752C58.4406 34.929 59.1652 33.8392 59.2637 33.1279C59.4232 31.9756 59.2158 30.815 59.0361 29.6777C58.6628 30.218 58.2843 30.6794 57.7881 31.1104C58.0903 29.6398 58.7263 28.3748 58.5762 26.8242C58.5444 26.4943 58.4579 25.6164 58.2246 25.4248C58.0562 25.5056 57.9023 25.5743 57.7207 25.6201C57.5766 25.084 57.7105 24.4821 57.627 23.9287C57.4468 22.7394 56.8288 21.5232 56.3691 20.418L55.6777 21.3262C55.6448 20.9727 55.6102 20.6187 55.5732 20.2656C55.5174 19.7387 55.4964 18.9227 55.0615 18.5713C54.9047 18.6189 54.7515 18.6609 54.5908 18.6924C54.0754 18.3359 54.2783 17.4548 54.1377 16.916C54.0165 16.4539 53.4947 16.1226 53.2285 15.7119C52.7458 14.9661 52.2996 14.217 51.7373 13.5254C49.6357 10.9405 46.5626 8.59569 43.6895 6.90625ZM10.0508 35.9404C10.2633 36.3379 11.042 36.7226 11.4297 36.9541C18.8383 41.3722 27.7784 41.8559 35.5859 45.3066C38.2082 46.4654 40.9522 47.8265 43.2754 49.5176C44.4336 50.3607 45.4823 51.3588 46.6602 52.1729L46.7568 52.2383C45.6717 50.8285 44.7165 49.393 43.8047 47.8662C43.3894 47.2043 41.8583 44.6533 41.251 44.418C41.0004 44.5571 40.9355 44.7524 40.8223 45C40.0642 43.8047 39.2287 42.4876 37.917 41.8398C37.575 41.9213 37.7036 42.1384 37.4277 42.3076C35.8887 41.03 34.9942 40.2987 33.1025 39.5771C33.2451 39.8974 33.5287 40.3644 33.4707 40.709C32.8742 40.4908 32.2978 39.841 31.752 39.4863C30.8032 38.8705 29.6936 38.7001 28.6084 38.4717C28.921 38.9462 29.1777 39.4502 29.4404 39.9531C27.3628 38.5734 26.3764 38.1541 23.875 38.0488L24.6465 39.2578C22.773 37.9673 21.2788 37.9291 19.0596 37.8438C19.5283 38.0203 19.9647 38.2581 20.4082 38.4893C16.8809 37.8967 13.4494 37.0967 10.0732 35.9199L10.0508 35.9404ZM9.26172 36.5049C8.98264 37.2928 12.1606 40.3771 12.2627 40.8916L12.0703 41.0342L12.1016 41.2188C13.2343 42.4014 14.1688 43.0432 15.6514 43.7422C15.3216 43.7794 14.9982 43.8077 14.6797 43.9033L14.7041 44.1084C15.7367 45.4213 17.8612 46.2998 19.4355 46.7334C18.9983 46.8064 18.5613 46.8884 18.125 46.9668C19.2582 47.7932 20.431 48.5471 21.791 48.9268C22.3784 49.0907 23.1804 49.1997 23.7061 49.4893C23.5412 49.605 23.3981 49.7118 23.2617 49.8604C23.9005 50.6339 27.3904 51.1334 28.4385 51.1406C30.6788 51.1559 32.9496 50.7639 35.207 50.751C36.0653 50.7426 36.9229 50.775 37.7783 50.8467C38.6335 50.9182 39.4842 51.0286 40.3291 51.1797C41.1974 51.3418 42.041 51.5663 42.8926 51.7979C37.9154 48.4792 33.5659 46.2662 27.9463 44.2148C21.6311 41.9096 14.7235 40.6495 9.26172 36.5049Z" fill="#A6CB17"/>
</svg>
